<mxfile host="app.diagrams.net" agent="Mozilla/5.0 (Windows NT 10.0; Win64; x64) AppleWebKit/537.36 (KHTML, like Gecko) Chrome/136.0.0.0 Safari/537.36" version="27.0.9">
  <diagram id="rYUDYkplzozT44H2AYqq" name="Page-3">
    <mxGraphModel dx="786" dy="425" grid="0" gridSize="10" guides="1" tooltips="1" connect="1" arrows="1" fold="1" page="1" pageScale="1" pageWidth="850" pageHeight="1100" background="#ffffff" math="0" shadow="0">
      <root>
        <mxCell id="0" />
        <mxCell id="1" parent="0" />
        <mxCell id="LlPa0_MVvlIxNYtgz6OC-1" value="" style="rounded=1;whiteSpace=wrap;html=1;gradientColor=none;dashed=1;fillColor=default;arcSize=6;" vertex="1" parent="1">
          <mxGeometry x="153" y="60" width="154" height="340" as="geometry" />
        </mxCell>
        <mxCell id="LlPa0_MVvlIxNYtgz6OC-5" value="crm_cust_info" style="rounded=0;whiteSpace=wrap;html=1;fillColor=#ffe6cc;dashed=1;strokeColor=none;" vertex="1" parent="1">
          <mxGeometry x="169.5" y="100" width="120" height="20" as="geometry" />
        </mxCell>
        <mxCell id="LlPa0_MVvlIxNYtgz6OC-6" value="crm_prd_info" style="rounded=0;whiteSpace=wrap;html=1;fillColor=#ffe6cc;dashed=1;strokeColor=none;" vertex="1" parent="1">
          <mxGeometry x="170" y="140" width="120" height="20" as="geometry" />
        </mxCell>
        <mxCell id="LlPa0_MVvlIxNYtgz6OC-7" value="crm_sales_details" style="rounded=0;whiteSpace=wrap;html=1;fillColor=#ffe6cc;strokeColor=none;" vertex="1" parent="1">
          <mxGeometry x="170" y="180" width="120" height="20" as="geometry" />
        </mxCell>
        <mxCell id="LlPa0_MVvlIxNYtgz6OC-8" value="erp_cust_az12" style="rounded=0;whiteSpace=wrap;html=1;fillColor=#ffe6cc;strokeColor=none;" vertex="1" parent="1">
          <mxGeometry x="170" y="253.06" width="120" height="20" as="geometry" />
        </mxCell>
        <mxCell id="LlPa0_MVvlIxNYtgz6OC-9" value="erp_loc_a101" style="rounded=0;whiteSpace=wrap;html=1;fillColor=#ffe6cc;strokeColor=none;" vertex="1" parent="1">
          <mxGeometry x="169.5" y="294" width="120" height="20" as="geometry" />
        </mxCell>
        <mxCell id="LlPa0_MVvlIxNYtgz6OC-10" value="erp_px_cat_g1v2" style="rounded=0;whiteSpace=wrap;html=1;fillColor=#ffe6cc;strokeColor=none;" vertex="1" parent="1">
          <mxGeometry x="170" y="333" width="120" height="20" as="geometry" />
        </mxCell>
        <mxCell id="LlPa0_MVvlIxNYtgz6OC-11" value="bronze_layer" style="rounded=0;whiteSpace=wrap;html=1;fillColor=#ffe6cc;dashed=1;strokeColor=none;fontStyle=1" vertex="1" parent="1">
          <mxGeometry x="169.5" y="50" width="120" height="20" as="geometry" />
        </mxCell>
        <mxCell id="LlPa0_MVvlIxNYtgz6OC-12" value="" style="rounded=1;whiteSpace=wrap;html=1;gradientColor=none;dashed=1;fillColor=default;arcSize=6;" vertex="1" parent="1">
          <mxGeometry x="10" y="60" width="90" height="340" as="geometry" />
        </mxCell>
        <mxCell id="LlPa0_MVvlIxNYtgz6OC-13" value="Source" style="rounded=0;whiteSpace=wrap;html=1;fontStyle=1" vertex="1" parent="1">
          <mxGeometry x="20" y="50" width="70" height="20" as="geometry" />
        </mxCell>
        <mxCell id="LlPa0_MVvlIxNYtgz6OC-14" value="" style="image;aspect=fixed;html=1;points=[];align=center;fontSize=12;image=img/lib/azure2/general/Folder_Blank.svg;" vertex="1" parent="1">
          <mxGeometry x="29.2" y="129.06" width="51.61" height="41.88" as="geometry" />
        </mxCell>
        <mxCell id="LlPa0_MVvlIxNYtgz6OC-15" value="" style="image;aspect=fixed;html=1;points=[];align=center;fontSize=12;image=img/lib/azure2/general/Folder_Blank.svg;" vertex="1" parent="1">
          <mxGeometry x="30.65" y="279.06" width="51.61" height="41.88" as="geometry" />
        </mxCell>
        <mxCell id="LlPa0_MVvlIxNYtgz6OC-17" value="" style="image;aspect=fixed;html=1;points=[];align=center;fontSize=12;image=img/lib/azure2/general/File.svg;" vertex="1" parent="1">
          <mxGeometry x="70.81" y="155" width="24.35" height="30" as="geometry" />
        </mxCell>
        <mxCell id="LlPa0_MVvlIxNYtgz6OC-18" value="" style="image;aspect=fixed;html=1;points=[];align=center;fontSize=12;image=img/lib/azure2/general/File.svg;" vertex="1" parent="1">
          <mxGeometry x="65.65" y="310" width="24.35" height="30" as="geometry" />
        </mxCell>
        <mxCell id="LlPa0_MVvlIxNYtgz6OC-21" value="ERP" style="rounded=0;whiteSpace=wrap;html=1;fontStyle=1;fillColor=none;strokeColor=none;" vertex="1" parent="1">
          <mxGeometry x="36.45" y="292" width="40" height="20" as="geometry" />
        </mxCell>
        <mxCell id="LlPa0_MVvlIxNYtgz6OC-19" value="CRM" style="rounded=0;whiteSpace=wrap;html=1;fontStyle=1;fillColor=none;strokeColor=none;" vertex="1" parent="1">
          <mxGeometry x="30.65" y="142.94" width="40" height="20" as="geometry" />
        </mxCell>
        <mxCell id="LlPa0_MVvlIxNYtgz6OC-22" value="" style="endArrow=classic;html=1;rounded=0;" edge="1" parent="1">
          <mxGeometry width="50" height="50" relative="1" as="geometry">
            <mxPoint x="140" y="110" as="sourcePoint" />
            <mxPoint x="179.19" y="110" as="targetPoint" />
          </mxGeometry>
        </mxCell>
        <mxCell id="LlPa0_MVvlIxNYtgz6OC-23" value="" style="endArrow=none;html=1;rounded=0;" edge="1" parent="1">
          <mxGeometry width="50" height="50" relative="1" as="geometry">
            <mxPoint x="80.81" y="149.5" as="sourcePoint" />
            <mxPoint x="140" y="150" as="targetPoint" />
          </mxGeometry>
        </mxCell>
        <mxCell id="LlPa0_MVvlIxNYtgz6OC-24" value="" style="endArrow=none;html=1;rounded=0;" edge="1" parent="1">
          <mxGeometry width="50" height="50" relative="1" as="geometry">
            <mxPoint x="140" y="190" as="sourcePoint" />
            <mxPoint x="140" y="110" as="targetPoint" />
          </mxGeometry>
        </mxCell>
        <mxCell id="LlPa0_MVvlIxNYtgz6OC-26" value="" style="endArrow=classic;html=1;rounded=0;" edge="1" parent="1">
          <mxGeometry width="50" height="50" relative="1" as="geometry">
            <mxPoint x="140" y="189.5" as="sourcePoint" />
            <mxPoint x="179.19000000000005" y="189.5" as="targetPoint" />
          </mxGeometry>
        </mxCell>
        <mxCell id="LlPa0_MVvlIxNYtgz6OC-27" value="" style="endArrow=classic;html=1;rounded=0;" edge="1" parent="1">
          <mxGeometry width="50" height="50" relative="1" as="geometry">
            <mxPoint x="137.81" y="149.5" as="sourcePoint" />
            <mxPoint x="177.00000000000006" y="149.5" as="targetPoint" />
          </mxGeometry>
        </mxCell>
        <mxCell id="LlPa0_MVvlIxNYtgz6OC-33" value="" style="endArrow=classic;html=1;rounded=0;" edge="1" parent="1">
          <mxGeometry width="50" height="50" relative="1" as="geometry">
            <mxPoint x="131.80999999999997" y="264" as="sourcePoint" />
            <mxPoint x="170.99999999999997" y="264" as="targetPoint" />
          </mxGeometry>
        </mxCell>
        <mxCell id="LlPa0_MVvlIxNYtgz6OC-34" value="" style="endArrow=none;html=1;rounded=0;" edge="1" parent="1">
          <mxGeometry width="50" height="50" relative="1" as="geometry">
            <mxPoint x="80" y="303" as="sourcePoint" />
            <mxPoint x="132.39" y="303" as="targetPoint" />
          </mxGeometry>
        </mxCell>
        <mxCell id="LlPa0_MVvlIxNYtgz6OC-35" value="" style="endArrow=none;html=1;rounded=0;" edge="1" parent="1">
          <mxGeometry width="50" height="50" relative="1" as="geometry">
            <mxPoint x="132.39" y="343" as="sourcePoint" />
            <mxPoint x="132.39" y="263" as="targetPoint" />
          </mxGeometry>
        </mxCell>
        <mxCell id="LlPa0_MVvlIxNYtgz6OC-36" value="" style="endArrow=classic;html=1;rounded=0;" edge="1" parent="1">
          <mxGeometry width="50" height="50" relative="1" as="geometry">
            <mxPoint x="132.39" y="342.5" as="sourcePoint" />
            <mxPoint x="171.58000000000004" y="342.5" as="targetPoint" />
          </mxGeometry>
        </mxCell>
        <mxCell id="LlPa0_MVvlIxNYtgz6OC-37" value="" style="endArrow=classic;html=1;rounded=0;" edge="1" parent="1">
          <mxGeometry width="50" height="50" relative="1" as="geometry">
            <mxPoint x="130.2" y="302.5" as="sourcePoint" />
            <mxPoint x="169.39000000000004" y="302.5" as="targetPoint" />
          </mxGeometry>
        </mxCell>
        <mxCell id="LlPa0_MVvlIxNYtgz6OC-39" value="" style="rounded=1;whiteSpace=wrap;html=1;gradientColor=none;dashed=1;fillColor=default;arcSize=6;" vertex="1" parent="1">
          <mxGeometry x="383" y="60" width="154" height="340" as="geometry" />
        </mxCell>
        <mxCell id="LlPa0_MVvlIxNYtgz6OC-40" value="silver_layer" style="rounded=0;whiteSpace=wrap;html=1;fillColor=#f5f5f5;dashed=1;strokeColor=none;fontStyle=1;fontColor=#333333;" vertex="1" parent="1">
          <mxGeometry x="400" y="50" width="120" height="20" as="geometry" />
        </mxCell>
        <mxCell id="LlPa0_MVvlIxNYtgz6OC-41" value="crm_cust_info" style="rounded=0;whiteSpace=wrap;html=1;fillColor=#f5f5f5;dashed=1;strokeColor=none;fontColor=#333333;" vertex="1" parent="1">
          <mxGeometry x="400" y="100" width="120" height="20" as="geometry" />
        </mxCell>
        <mxCell id="LlPa0_MVvlIxNYtgz6OC-42" value="crm_prd_info" style="rounded=0;whiteSpace=wrap;html=1;fillColor=#f5f5f5;dashed=1;strokeColor=none;fontColor=#333333;" vertex="1" parent="1">
          <mxGeometry x="400.5" y="140" width="120" height="20" as="geometry" />
        </mxCell>
        <mxCell id="LlPa0_MVvlIxNYtgz6OC-43" value="crm_sales_details" style="rounded=0;whiteSpace=wrap;html=1;fillColor=#f5f5f5;strokeColor=none;fontColor=#333333;" vertex="1" parent="1">
          <mxGeometry x="400.5" y="180" width="120" height="20" as="geometry" />
        </mxCell>
        <mxCell id="LlPa0_MVvlIxNYtgz6OC-44" value="erp_cust_az12" style="rounded=0;whiteSpace=wrap;html=1;fillColor=#f5f5f5;strokeColor=none;fontColor=#333333;" vertex="1" parent="1">
          <mxGeometry x="400.5" y="253.06" width="120" height="20" as="geometry" />
        </mxCell>
        <mxCell id="LlPa0_MVvlIxNYtgz6OC-45" value="erp_loc_a101" style="rounded=0;whiteSpace=wrap;html=1;fillColor=#f5f5f5;strokeColor=none;fontColor=#333333;" vertex="1" parent="1">
          <mxGeometry x="400" y="294" width="120" height="20" as="geometry" />
        </mxCell>
        <mxCell id="LlPa0_MVvlIxNYtgz6OC-46" value="erp_px_cat_g1v2" style="rounded=0;whiteSpace=wrap;html=1;fillColor=#f5f5f5;strokeColor=none;fontColor=#333333;" vertex="1" parent="1">
          <mxGeometry x="400.5" y="333" width="120" height="20" as="geometry" />
        </mxCell>
        <mxCell id="LlPa0_MVvlIxNYtgz6OC-47" value="" style="endArrow=classic;html=1;rounded=0;entryX=0;entryY=0.5;entryDx=0;entryDy=0;" edge="1" parent="1" target="LlPa0_MVvlIxNYtgz6OC-41">
          <mxGeometry width="50" height="50" relative="1" as="geometry">
            <mxPoint x="289.5" y="110" as="sourcePoint" />
            <mxPoint x="339.5" y="60" as="targetPoint" />
          </mxGeometry>
        </mxCell>
        <mxCell id="LlPa0_MVvlIxNYtgz6OC-48" value="" style="endArrow=classic;html=1;rounded=0;entryX=0;entryY=0.5;entryDx=0;entryDy=0;" edge="1" parent="1">
          <mxGeometry width="50" height="50" relative="1" as="geometry">
            <mxPoint x="289.5" y="149.5" as="sourcePoint" />
            <mxPoint x="400" y="149.5" as="targetPoint" />
          </mxGeometry>
        </mxCell>
        <mxCell id="LlPa0_MVvlIxNYtgz6OC-49" value="" style="endArrow=classic;html=1;rounded=0;entryX=0;entryY=0.5;entryDx=0;entryDy=0;" edge="1" parent="1">
          <mxGeometry width="50" height="50" relative="1" as="geometry">
            <mxPoint x="289.5" y="189.5" as="sourcePoint" />
            <mxPoint x="400" y="189.5" as="targetPoint" />
          </mxGeometry>
        </mxCell>
        <mxCell id="LlPa0_MVvlIxNYtgz6OC-50" value="" style="endArrow=classic;html=1;rounded=0;entryX=0;entryY=0.5;entryDx=0;entryDy=0;" edge="1" parent="1">
          <mxGeometry width="50" height="50" relative="1" as="geometry">
            <mxPoint x="289.5" y="262.56" as="sourcePoint" />
            <mxPoint x="400" y="262.56" as="targetPoint" />
          </mxGeometry>
        </mxCell>
        <mxCell id="LlPa0_MVvlIxNYtgz6OC-51" value="" style="endArrow=classic;html=1;rounded=0;entryX=0;entryY=0.5;entryDx=0;entryDy=0;" edge="1" parent="1">
          <mxGeometry width="50" height="50" relative="1" as="geometry">
            <mxPoint x="289.5" y="303.5" as="sourcePoint" />
            <mxPoint x="400" y="303.5" as="targetPoint" />
          </mxGeometry>
        </mxCell>
        <mxCell id="LlPa0_MVvlIxNYtgz6OC-52" value="" style="endArrow=classic;html=1;rounded=0;entryX=0;entryY=0.5;entryDx=0;entryDy=0;" edge="1" parent="1">
          <mxGeometry width="50" height="50" relative="1" as="geometry">
            <mxPoint x="289.5" y="342.5" as="sourcePoint" />
            <mxPoint x="400" y="342.5" as="targetPoint" />
          </mxGeometry>
        </mxCell>
        <mxCell id="LlPa0_MVvlIxNYtgz6OC-53" value="" style="rounded=1;whiteSpace=wrap;html=1;gradientColor=none;dashed=1;fillColor=default;arcSize=6;" vertex="1" parent="1">
          <mxGeometry x="620" y="60" width="154" height="340" as="geometry" />
        </mxCell>
        <mxCell id="LlPa0_MVvlIxNYtgz6OC-54" value="fact_sales" style="rounded=0;whiteSpace=wrap;html=1;fillColor=#fff2cc;dashed=1;strokeColor=none;" vertex="1" parent="1">
          <mxGeometry x="637" y="175" width="120" height="30" as="geometry" />
        </mxCell>
        <mxCell id="LlPa0_MVvlIxNYtgz6OC-55" value="dim_customer" style="rounded=0;whiteSpace=wrap;html=1;fillColor=#fff2cc;dashed=1;strokeColor=none;" vertex="1" parent="1">
          <mxGeometry x="637" y="100" width="120" height="30" as="geometry" />
        </mxCell>
        <mxCell id="LlPa0_MVvlIxNYtgz6OC-56" value="dim_product" style="rounded=0;whiteSpace=wrap;html=1;fillColor=#fff2cc;dashed=1;strokeColor=none;" vertex="1" parent="1">
          <mxGeometry x="637" y="284" width="120" height="30" as="geometry" />
        </mxCell>
        <mxCell id="LlPa0_MVvlIxNYtgz6OC-66" value="" style="endArrow=classic;html=1;rounded=0;entryX=0;entryY=0.5;entryDx=0;entryDy=0;" edge="1" parent="1" target="LlPa0_MVvlIxNYtgz6OC-54">
          <mxGeometry width="50" height="50" relative="1" as="geometry">
            <mxPoint x="520" y="189.5" as="sourcePoint" />
            <mxPoint x="630.5" y="189.5" as="targetPoint" />
          </mxGeometry>
        </mxCell>
        <mxCell id="LlPa0_MVvlIxNYtgz6OC-67" value="" style="endArrow=classic;html=1;rounded=0;entryX=0;entryY=0.5;entryDx=0;entryDy=0;" edge="1" parent="1">
          <mxGeometry width="50" height="50" relative="1" as="geometry">
            <mxPoint x="520" y="114.5" as="sourcePoint" />
            <mxPoint x="637" y="115" as="targetPoint" />
          </mxGeometry>
        </mxCell>
        <mxCell id="LlPa0_MVvlIxNYtgz6OC-68" value="" style="endArrow=classic;html=1;rounded=0;entryX=0;entryY=0.5;entryDx=0;entryDy=0;" edge="1" parent="1" target="LlPa0_MVvlIxNYtgz6OC-56">
          <mxGeometry width="50" height="50" relative="1" as="geometry">
            <mxPoint x="520.5" y="152.44" as="sourcePoint" />
            <mxPoint x="637.5" y="152.94" as="targetPoint" />
          </mxGeometry>
        </mxCell>
        <mxCell id="LlPa0_MVvlIxNYtgz6OC-69" value="" style="endArrow=classic;html=1;rounded=0;entryX=0;entryY=0.5;entryDx=0;entryDy=0;" edge="1" parent="1" target="LlPa0_MVvlIxNYtgz6OC-55">
          <mxGeometry width="50" height="50" relative="1" as="geometry">
            <mxPoint x="520" y="303.5" as="sourcePoint" />
            <mxPoint x="637" y="304" as="targetPoint" />
          </mxGeometry>
        </mxCell>
        <mxCell id="LlPa0_MVvlIxNYtgz6OC-70" value="" style="endArrow=classic;html=1;rounded=0;entryX=0;entryY=0.5;entryDx=0;entryDy=0;exitX=1;exitY=0.5;exitDx=0;exitDy=0;" edge="1" parent="1" source="LlPa0_MVvlIxNYtgz6OC-44" target="LlPa0_MVvlIxNYtgz6OC-55">
          <mxGeometry width="50" height="50" relative="1" as="geometry">
            <mxPoint x="520.5" y="273.06" as="sourcePoint" />
            <mxPoint x="630" y="120" as="targetPoint" />
          </mxGeometry>
        </mxCell>
        <mxCell id="LlPa0_MVvlIxNYtgz6OC-71" value="" style="endArrow=classic;html=1;rounded=0;entryX=0;entryY=0.5;entryDx=0;entryDy=0;" edge="1" parent="1" target="LlPa0_MVvlIxNYtgz6OC-56">
          <mxGeometry width="50" height="50" relative="1" as="geometry">
            <mxPoint x="520" y="342.5" as="sourcePoint" />
            <mxPoint x="637" y="343" as="targetPoint" />
          </mxGeometry>
        </mxCell>
        <mxCell id="LlPa0_MVvlIxNYtgz6OC-72" value="Gold_Layer" style="rounded=0;whiteSpace=wrap;html=1;fillColor=#fff2cc;dashed=1;strokeColor=none;fontStyle=1;" vertex="1" parent="1">
          <mxGeometry x="637" y="50" width="120" height="20" as="geometry" />
        </mxCell>
        <mxCell id="LlPa0_MVvlIxNYtgz6OC-73" value="&lt;font style=&quot;font-size: 19px;&quot;&gt;&lt;b&gt;Data Flow Diagram&lt;/b&gt;&lt;/font&gt;" style="rounded=0;whiteSpace=wrap;html=1;" vertex="1" parent="1">
          <mxGeometry x="200" y="10" width="440" height="30" as="geometry" />
        </mxCell>
      </root>
    </mxGraphModel>
  </diagram>
</mxfile>
